<svg width="44" height="31" viewBox="0 0 44 31" fill="none" xmlns="http://www.w3.org/2000/svg">
    <path d="M3.22932 29.6743L3.22979 29.6745C3.73613 29.9322 4.34234 30.0736 5.22856 30.1459C6.12062 30.2188 7.25176 30.2192 8.8 30.2192H35.2C36.7482 30.2192 37.8794 30.2188 38.7714 30.1459C39.6577 30.0736 40.2639 29.9322 40.7702 29.6745L40.7704 29.6744C41.7108 29.1964 42.4751 28.4339 42.9542 27.4965L42.9543 27.4963C43.2124 26.9917 43.3541 26.3876 43.4266 25.504C43.4996 24.6145 43.5 23.4865 43.5 21.9423V8.7769C43.5 7.23266 43.4996 6.10468 43.4266 5.21516C43.3541 4.33155 43.2124 3.72742 42.9543 3.22285L42.954 3.22239C42.4754 2.28438 41.7112 1.52131 40.7708 1.04271C40.2643 0.785914 39.6579 0.645053 38.7716 0.572957C37.8794 0.500385 36.7482 0.5 35.2 0.5H8.8C7.25179 0.5 6.12056 0.500385 5.22841 0.572957C4.34208 0.645056 3.73568 0.785925 3.22919 1.04274L3.22932 29.6743ZM3.22932 29.6743C2.28827 29.1966 1.52324 28.4342 1.04362 27.4965C0.786491 26.9919 0.645382 26.3876 0.573137 25.5042C0.50039 24.6145 0.5 23.4865 0.5 21.9423V8.7769C0.5 7.23269 0.50039 6.10462 0.573137 5.21501M3.22932 29.6743L0.573137 5.21501M0.573137 5.21501C0.645398 4.33133 0.786556 3.72702 1.0438 3.22231L0.573137 5.21501ZM5.82357 3.88845C5.48049 3.88813 5.14627 3.99789 4.87031 4.20173C4.59421 4.40567 4.39104 4.69301 4.29112 5.02139C4.19119 5.34979 4.1999 5.70157 4.31594 6.02463C4.43196 6.34759 4.649 6.62448 4.93471 6.81456L5.82401 3.88845C5.82386 3.88845 5.82372 3.88845 5.82357 3.88845ZM5.82357 3.88845H38.1764H5.82357ZM1.04386 3.22219C1.52309 2.28399 2.28799 1.52097 3.22913 1.04277L1.04386 3.22219Z" stroke="white"/>
</svg>
