<svg width="44" height="38" viewBox="0 0 44 38" fill="none" xmlns="http://www.w3.org/2000/svg">
    <path d="M1.14086 15.1565L1.14088 15.1565L42.2074 0.556216C42.5311 0.441161 42.8914 0.505431 43.1543 0.724222C43.4168 0.942848 43.5428 1.28277 43.4869 1.61752C43.4869 1.61756 43.4869 1.6176 43.4869 1.61764L37.6203 36.6583C37.5666 36.979 37.3532 37.2516 37.0519 37.3814C36.7501 37.5114 36.4027 37.4802 36.1298 37.299L36.1297 37.299L18.5296 25.6188C18.3041 25.4692 18.1528 25.2327 18.1114 24.9675C18.07 24.7024 18.1423 24.4319 18.3111 24.2217L24.1431 16.9647L23.4769 16.2349L13.7371 22.6987L14.0136 23.1153L13.7371 22.6987C13.4482 22.8905 13.0777 22.9135 12.7669 22.7588L1.03356 16.9187L0.810768 17.3663L1.03355 16.9187C0.686856 16.7461 0.478557 16.3852 0.501763 16.0027C0.524973 15.62 0.775504 15.2864 1.14086 15.1565Z" stroke="white"/>
</svg>
