<svg width="44" height="47" viewBox="0 0 44 47" fill="none" xmlns="http://www.w3.org/2000/svg">
    <path d="M5.16829 35.5564L5.2535 35.2974L5.0819 35.0855C2.07653 31.3743 0.5 26.8054 0.5 21.9423C0.5 10.0783 10.1016 0.5 22 0.5C33.8984 0.5 43.5 10.0783 43.5 21.9423C43.5 33.8063 33.8984 43.3845 22 43.3845C19.1353 43.3845 16.4178 42.8135 13.8426 41.672L13.6389 41.5817L13.4355 41.6728L3.31554 46.2076L3.23185 46.2451L3.18774 46.2891C3.1786 46.2918 3.16452 46.2953 3.14468 46.2986C3.08073 46.3093 3.00954 46.3101 2.93333 46.3101C2.85901 46.3101 2.74452 46.2892 2.64096 46.2433C2.59152 46.2214 2.55452 46.1981 2.52974 46.1777C2.5065 46.1585 2.50026 46.1471 2.50024 46.1471L2.46392 46.0746L2.40642 46.0173C2.10001 45.7117 1.99539 45.3155 2.09436 44.9L5.16829 35.5564ZM35.2342 30.1462L35.2377 30.1359L35.2407 30.1254C35.3909 29.6011 35.5835 28.8361 35.6611 28.0239C35.7378 27.2208 35.7079 26.3152 35.3634 25.5421L35.3587 25.5317L35.3536 25.5215C35.1497 25.1146 34.8451 24.8707 34.5632 24.6978C34.4403 24.6223 34.3138 24.5558 34.2054 24.4988C34.1935 24.4926 34.1818 24.4864 34.1704 24.4804C34.0481 24.416 33.9498 24.3626 33.8635 24.3053L33.8376 24.288L33.8098 24.2742L33.5165 24.1279L33.5082 24.1238L33.4998 24.1199L33.2933 24.5753L33.4998 24.1199L33.4996 24.1199L33.4992 24.1197L33.4975 24.1189L33.4906 24.1158L33.4635 24.1035L33.3602 24.0566L32.987 23.887C32.6755 23.7454 32.2541 23.5536 31.8145 23.3526C30.9298 22.9482 29.9868 22.514 29.7031 22.3725L29.6797 22.3608L29.6552 22.3516C28.2919 21.8418 26.8715 22.1806 25.9935 23.4065L25.9706 23.4384L25.953 23.4736L25.8412 23.6965C25.6131 23.9357 25.4264 24.199 25.2743 24.4182C25.26 24.4387 25.2462 24.4587 25.2327 24.4781C25.1719 24.5658 25.119 24.6422 25.0712 24.7086C24.3235 24.4132 23.1995 23.9218 21.7507 22.5972L21.7508 22.5971L21.7421 22.5895C20.7994 21.7668 20.0475 20.736 19.5778 20.0052C19.6599 19.9596 19.7295 19.9028 19.7864 19.8461C19.8944 19.7384 19.9842 19.6046 20.061 19.4625C20.3285 19.1955 20.6602 18.8524 20.8424 18.3505C21.0852 17.9319 21.2167 17.4931 21.2167 17.0235C21.2167 16.5415 21.0781 16.062 20.8336 15.5743L20.7973 15.5018L20.7591 15.4637C20.7554 15.4579 20.7499 15.4491 20.7425 15.4367C20.7191 15.3972 20.6878 15.3396 20.649 15.2633C20.5719 15.1115 20.4749 14.9051 20.3667 14.6624C20.1507 14.1777 19.8978 13.5651 19.6813 12.9894L19.6721 12.9648L19.6603 12.9413L19.0736 11.771C18.6857 10.9971 18.2675 10.4701 17.7579 10.1467C17.2418 9.81913 16.6935 9.73972 16.1333 9.73972H16.1316H16.1299H16.1282H16.1265H16.1248H16.1231H16.1214H16.1197H16.118H16.1163H16.1146H16.1129H16.1113H16.1096H16.1079H16.1063H16.1046H16.1029H16.1013H16.0996H16.098H16.0963H16.0947H16.093H16.0914H16.0897H16.0881H16.0865H16.0848H16.0832H16.0816H16.08H16.0784H16.0767H16.0751H16.0735H16.0719H16.0703H16.0687H16.0671H16.0655H16.0639H16.0624H16.0608H16.0592H16.0576H16.056H16.0545H16.0529H16.0513H16.0498H16.0482H16.0466H16.0451H16.0435H16.042H16.0404H16.0389H16.0373H16.0358H16.0342H16.0327H16.0312H16.0296H16.0281H16.0266H16.0251H16.0235H16.022H16.0205H16.019H16.0175H16.016H16.0145H16.0129H16.0114H16.0099H16.0084H16.007H16.0055H16.004H16.0025H16.001H15.9995H15.998H15.9965H15.9951H15.9936H15.9921H15.9906H15.9892H15.9877H15.9862H15.9848H15.9833H15.9819H15.9804H15.979H15.9775H15.9761H15.9746H15.9732H15.9717H15.9703H15.9688H15.9674H15.966H15.9645H15.9631H15.9617H15.9602H15.9588H15.9574H15.956H15.9546H15.9531H15.9517H15.9503H15.9489H15.9475H15.9461H15.9447H15.9433H15.9418H15.9404H15.939H15.9376H15.9362H15.9349H15.9335H15.9321H15.9307H15.9293H15.9279H15.9265H15.9251H15.9237H15.9224H15.921H15.9196H15.9182H15.9169H15.9155H15.9141H15.9127H15.9114H15.91H15.9086H15.9073H15.9059H15.9045H15.9032H15.9018H15.9005H15.8991H15.8978H15.8964H15.8951H15.8937H15.8924H15.891H15.8897H15.8883H15.887H15.8856H15.8843H15.8829H15.8816H15.8803H15.8789H15.8776H15.8762H15.8749H15.8736H15.8722H15.8709H15.8696H15.8683H15.8669H15.8656H15.8643H15.8629H15.8616H15.8603H15.859H15.8577H15.8563H15.855H15.8537H15.8524H15.8511H15.8497H15.8484H15.8471H15.8458H15.8445H15.8432H15.8419H15.8405H15.8392H15.8379H15.8366H15.8353H15.834H15.8327H15.8314H15.8301H15.8288H15.8275H15.8262H15.8249H15.8236H15.8223H15.821H15.8197H15.8184H15.8171H15.8158H15.8145H15.8132H15.8119H15.8106H15.8093H15.808H15.8067H15.8054H15.8041H15.8028H15.8015H15.8002H15.7989H15.7976H15.7963H15.795H15.7938H15.7925H15.7912H15.7899H15.7886H15.7873H15.786H15.7847H15.7834H15.7821H15.7808H15.7796H15.7783H15.777H15.7757H15.7744H15.7731H15.7718H15.7705H15.7692H15.768H15.7667H15.7654H15.7641H15.7628H15.7615H15.7602H15.7589H15.7576H15.7564H15.7551H15.7538H15.7525H15.7512H15.7499H15.7486H15.7473H15.746H15.7447H15.7435H15.7422H15.7409H15.7396H15.7383H15.737H15.7357H15.7344H15.7331H15.7318H15.7305H15.7292H15.7279H15.7266H15.7253H15.724H15.7228H15.7215H15.7202H15.7189H15.7176H15.7163H15.715H15.7137H15.7124H15.7111H15.7098H15.7085H15.7072H15.7059H15.7045H15.7032H15.7019H15.7006H15.6993H15.698H15.6967H15.6954H15.6941H15.6928H15.6915H15.6902H15.6889H15.6875H15.6862H15.6849H15.6836H15.6823H15.681H15.6796H15.6783H15.677H15.6757H15.6744H15.673H15.6717H15.6704H15.6691H15.6677H15.6664H15.6651H15.6638H15.6624H15.6611H15.6598H15.6584H15.6571H15.6558H15.6544H15.6531H15.6517H15.6504H15.6491H15.6477H15.6464H15.645H15.6437H15.6423H15.641H15.6396H15.6383H15.6369H15.6356H15.6342H15.6329H15.6315H15.6301H15.6288H15.6274H15.6261H15.6247H15.6233H15.622H15.6206H15.6192H15.6178H15.6165H15.6151H15.6137H15.6123H15.611H15.6096H15.6082H15.6068H15.6054H15.604H15.6027H15.6013H15.5999H15.5985H15.5971H15.5957H15.5943H15.5929H15.5915H15.5901H15.5887H15.5873H15.5859H15.5844H15.583H15.5816H15.5802H15.5788H15.5774H15.5759H15.5745H15.5731H15.5717H15.5702H15.5688H15.5674H15.5659H15.5645H15.5631H15.5616H15.5602H15.5587H15.5573H15.5558H15.5544H15.5529H15.5515H15.55H15.5485H15.5471H15.5456H15.5442H15.5427H15.5412H15.5397H15.5383H15.5368H15.5353H15.5338H15.5323H15.5309H15.5294H15.5279H15.5264H15.5249H15.5234H15.5219H15.5204H15.5189H15.5174H15.5159H15.5144H15.5128H15.5113H15.5098H15.5083H15.5068H15.5052H15.5037H15.5022H15.5006H15.4991H15.4976H15.496H15.4945H15.4929H15.4914H15.4898H15.4883H15.4867H15.4851H15.4836H15.482H15.4804H15.4789H15.4773H15.4757H15.4741H15.4726H15.471H15.4694H15.4678H15.4662H15.4646H15.463H15.4614H15.4598H15.4582H15.4566H15.455H15.4534H15.4517H15.4501H15.4485H15.4469H15.4452H15.4436H15.442H15.4403H15.4387H15.437H15.4354H15.4337H15.4321H15.4304H15.4287H15.4271H15.4254H15.4237H15.4221H15.4204H15.4187H15.417H15.4153H15.4136H15.412H15.4103H15.4086H15.4068H15.4051H15.4034H15.4017H15.4C14.0987 9.73972 12.9437 10.228 12.1136 11.056L12.094 11.0755L12.0766 11.0971C12.026 11.1603 11.9664 11.2313 11.8999 11.3106C11.2087 12.1344 9.76667 13.8532 9.76667 16.9687C9.76667 19.6862 11.3686 22.2171 12.26 23.5566V23.71L12.3515 23.8396C15.1755 27.8421 18.763 30.9874 22.3923 32.4964C25.5072 33.8276 27.336 34.1448 28.6 34.1448L28.6423 34.1448C29.1804 34.1449 29.6797 34.145 30.1831 33.9863C31.2116 33.8207 32.2947 33.351 33.2009 32.6972C34.1152 32.0375 34.897 31.1553 35.2342 30.1462Z" stroke="white"/>
</svg>